<svg width="32" height="32" viewBox="0 0 32 32" fill="none" xmlns="http://www.w3.org/2000/svg">
<rect width="32" height="32" rx="8" fill="black"/>
<path d="M17.9113 8.81129C18.0505 8.78521 18.1809 8.7149 18.2733 8.60483C18.3657 8.49485 18.4125 8.35562 18.4033 8.21533C18.3941 8.07503 18.3295 7.94311 18.2235 7.84613C18.1176 7.74907 17.9791 7.69639 17.8377 7.68871C17.8377 7.68871 17.8377 7.68871 17.8377 7.68871C17.2594 7.66588 16.6957 7.71952 16.1433 7.80548C14.732 8.03794 13.3655 8.4689 12.0543 9.21477C11.4042 9.59541 10.7538 10.0565 10.191 10.7564C9.63406 11.4236 9.16815 12.5746 9.42908 13.6937C9.80996 15.5073 11.4899 16.3024 12.5322 16.6478C13.6669 17.0237 14.7154 17.1827 15.7125 17.3546C17.8817 17.6909 19.8554 18.141 19.7347 19.125C19.79 19.1458 19.6897 19.5021 19.365 19.8557C19.0555 20.2113 18.6188 20.5704 18.1559 20.9004C17.2178 21.5648 16.1491 22.1536 15.0555 22.6965C14.8212 22.8116 14.5991 22.9196 14.3618 23.0293C14.2438 23.0838 14.1277 23.1369 14.0132 23.1881C13.9571 23.2133 13.8963 23.2397 13.841 23.2637C13.8089 23.277 13.7858 23.2876 13.7598 23.2987C13.7439 23.305 13.7313 23.3103 13.7232 23.3144C13.7368 23.3175 13.6359 23.3248 13.8168 23.3125C13.6762 23.3294 13.5414 23.391 13.442 23.4948C13.3427 23.5985 13.2868 23.7344 13.2868 23.875C13.2868 24.0156 13.3427 24.1515 13.442 24.2552C13.5414 24.359 13.6762 24.4206 13.8168 24.4375C14.0044 24.4265 13.9711 24.4178 13.9995 24.417C14.0186 24.4142 14.0388 24.4109 14.0614 24.4068C14.0983 24.4007 14.1279 24.3963 14.1672 24.389C14.2352 24.3773 14.3061 24.3639 14.3715 24.3517C14.5046 24.3267 14.6372 24.2999 14.7716 24.2712C15.0418 24.2132 15.295 24.1556 15.5621 24.0884C16.8128 23.7719 18.0449 23.3754 19.2631 22.7774C20.3789 22.0965 22.0299 21.6326 22.3988 19.125C22.4416 18.3533 22.1953 17.3799 21.6258 16.6859C21.0664 15.9846 20.3688 15.5867 19.7444 15.3092C18.4764 14.769 17.3137 14.5903 16.2098 14.3961C14.2639 14.1245 12.0627 13.5983 12.0698 13.0563C11.8307 12.7584 12.3497 11.7748 13.2951 11.0573C14.2142 10.3202 15.3483 9.69977 16.52 9.23803C16.9783 9.05991 17.4529 8.90504 17.9113 8.81129Z" fill="white"/>
<circle cx="11.25" cy="24.25" r="1.375" fill="white" stroke="white" stroke-width="0.25"/>
<circle cx="20.75" cy="7.75" r="1.375" fill="white" stroke="white" stroke-width="0.25"/>
</svg>
